<?xml version="1.0" standalone="no"?>
<!DOCTYPE svg PUBLIC "-//W3C//DTD SVG 20010904//EN"
 "http://www.w3.org/TR/2001/REC-SVG-20010904/DTD/svg10.dtd">
<svg version="1.0" xmlns="http://www.w3.org/2000/svg"
 width="700.000000pt" height="700.000000pt" viewBox="0 0 700.000000 700.000000"
 preserveAspectRatio="xMidYMid meet">
<metadata>
Created by potrace 1.14, written by Peter Selinger 2001-2017
</metadata>
<g transform="translate(0.000000,700.000000) scale(0.100000,-0.100000)"
fill="#000000" stroke="none">
<path d="M3137 6123 c-1 -1 -41 -4 -89 -8 -47 -3 -95 -7 -105 -9 -10 -2 -38
-7 -63 -10 -25 -3 -55 -8 -66 -10 -12 -2 -39 -7 -60 -10 -21 -4 -63 -13 -94
-21 -30 -8 -66 -16 -80 -19 -104 -19 -404 -137 -566 -222 -242 -127 -418 -259
-630 -469 -143 -141 -233 -250 -336 -406 -102 -154 -218 -369 -218 -402 0 -7
-4 -17 -8 -22 -5 -6 -19 -37 -31 -70 -13 -33 -27 -69 -32 -80 -13 -30 -77
-255 -84 -295 -3 -19 -10 -54 -15 -77 -6 -23 -12 -61 -15 -85 -3 -24 -7 -54
-10 -68 -25 -128 -25 -569 1 -700 2 -14 6 -36 9 -50 3 -13 7 -42 10 -65 4 -22
10 -56 15 -75 5 -19 12 -50 15 -67 10 -59 76 -266 116 -367 98 -243 223 -457
388 -666 76 -97 282 -309 358 -369 23 -18 51 -41 63 -51 11 -10 36 -28 55 -41
19 -13 35 -27 35 -31 0 -5 4 -8 9 -8 5 0 44 -24 87 -53 194 -130 419 -237 654
-311 122 -38 302 -81 385 -91 28 -4 61 -8 75 -11 95 -16 360 -23 528 -14 61 3
63 4 79 39 58 125 249 406 353 521 170 186 324 328 513 471 149 113 363 254
537 354 118 68 209 127 247 160 6 5 26 21 45 35 48 36 193 186 243 250 80 104
136 198 270 456 55 105 117 183 172 215 106 63 317 124 436 128 l28 1 -6 73
c-13 150 -20 189 -60 314 -90 285 -313 565 -552 690 -45 24 -57 37 -89 98 -74
141 -98 182 -159 275 -115 177 -306 397 -451 522 -28 23 -64 54 -80 68 -16 13
-77 59 -135 100 -146 105 -289 185 -496 276 -132 59 -407 140 -537 160 -22 3
-43 7 -46 9 -3 1 -30 6 -61 9 -31 4 -65 8 -75 10 -63 12 -468 28 -477 19z
m1281 -1372 c81 -41 154 -133 171 -215 44 -214 -116 -402 -332 -391 -266 14
-394 333 -214 532 93 103 255 135 375 74z"/>
</g>
</svg>
